<mxfile host="Electron" modified="2024-05-12T09:19:23.342Z" agent="5.0 (Windows NT 10.0; Win64; x64) AppleWebKit/537.36 (KHTML, like Gecko) draw.io/20.8.16 Chrome/106.0.5249.199 Electron/21.4.0 Safari/537.36" etag="qBtc7s9XQCI_TDxeaQUZ" compressed="false" version="20.8.16" type="device">
  <diagram name="v3" id="9n7vPRytGBd8-qQ8bjde">
    <mxGraphModel dx="766" dy="528" grid="1" gridSize="10" guides="1" tooltips="1" connect="1" arrows="1" fold="1" page="1" pageScale="1" pageWidth="827" pageHeight="1169" math="0" shadow="0">
      <root>
        <mxCell id="AcLKcFcPObNCE5Jz1mWQ-0" />
        <mxCell id="AcLKcFcPObNCE5Jz1mWQ-1" parent="AcLKcFcPObNCE5Jz1mWQ-0" />
        <object label="%id%" placeholders="1" type="section" id="s22">
          <mxCell style="endArrow=open;html=1;rounded=0;startArrow=baseDash;startFill=0;endFill=0;" parent="AcLKcFcPObNCE5Jz1mWQ-1" source="j14" target="j01" edge="1">
            <mxGeometry width="100" height="100" relative="1" as="geometry">
              <mxPoint x="960" y="400" as="sourcePoint" />
              <mxPoint x="440" y="320" as="targetPoint" />
              <Array as="points">
                <mxPoint x="160" y="400" />
                <mxPoint x="160" y="320" />
              </Array>
            </mxGeometry>
          </mxCell>
        </object>
        <object label="%id%" placeholders="1" type="platform" id="p00">
          <mxCell style="rounded=0;whiteSpace=wrap;html=1;" parent="AcLKcFcPObNCE5Jz1mWQ-1" vertex="1">
            <mxGeometry x="240" y="260" width="120" height="40" as="geometry" />
          </mxCell>
        </object>
        <object label="%id%" placeholders="1" type="platform" id="p01">
          <mxCell style="rounded=0;whiteSpace=wrap;html=1;" parent="AcLKcFcPObNCE5Jz1mWQ-1" vertex="1">
            <mxGeometry x="240" y="420" width="120" height="40" as="geometry" />
          </mxCell>
        </object>
        <object label="%id%" placeholders="1" type="section" id="s00">
          <mxCell style="endArrow=open;html=1;rounded=0;startArrow=baseDash;startFill=0;endFill=0;" parent="AcLKcFcPObNCE5Jz1mWQ-1" source="j00" target="j01" edge="1">
            <mxGeometry width="100" height="100" relative="1" as="geometry">
              <mxPoint x="400" y="238.62" as="sourcePoint" />
              <mxPoint x="440" y="318" as="targetPoint" />
            </mxGeometry>
          </mxCell>
        </object>
        <object label="%id%" placeholders="1" type="section" id="s03">
          <mxCell style="endArrow=open;html=1;rounded=0;startArrow=baseDash;startFill=0;endFill=0;" parent="AcLKcFcPObNCE5Jz1mWQ-1" source="j02" target="j03" edge="1">
            <mxGeometry width="100" height="100" relative="1" as="geometry">
              <mxPoint x="480" y="318.62" as="sourcePoint" />
              <mxPoint x="520" y="238.62" as="targetPoint" />
            </mxGeometry>
          </mxCell>
        </object>
        <object label="%id%" placeholders="1" type="section" id="s01">
          <mxCell style="endArrow=open;html=1;rounded=0;startArrow=baseDash;startFill=0;endFill=0;" parent="AcLKcFcPObNCE5Jz1mWQ-1" source="j00" target="j03" edge="1">
            <mxGeometry width="100" height="100" relative="1" as="geometry">
              <mxPoint x="440" y="230" as="sourcePoint" />
              <mxPoint x="520" y="238.62" as="targetPoint" />
            </mxGeometry>
          </mxCell>
        </object>
        <object label="%id%" placeholders="1" type="section" id="s02">
          <mxCell style="endArrow=open;html=1;rounded=0;startArrow=baseDash;startFill=0;endFill=0;" parent="AcLKcFcPObNCE5Jz1mWQ-1" source="j01" target="j02" edge="1">
            <mxGeometry width="100" height="100" relative="1" as="geometry">
              <mxPoint x="440" y="318.62" as="sourcePoint" />
              <mxPoint x="480" y="318.62" as="targetPoint" />
            </mxGeometry>
          </mxCell>
        </object>
        <object label="%id%" placeholders="1" type="platform" id="p02">
          <mxCell style="rounded=0;whiteSpace=wrap;html=1;" parent="AcLKcFcPObNCE5Jz1mWQ-1" vertex="1">
            <mxGeometry x="520" y="180" width="120" height="40" as="geometry" />
          </mxCell>
        </object>
        <object label="%id%" placeholders="1" type="section" id="s05">
          <mxCell style="endArrow=open;html=1;rounded=0;startArrow=baseDash;startFill=0;endFill=0;" parent="AcLKcFcPObNCE5Jz1mWQ-1" source="j03" target="j05" edge="1">
            <mxGeometry width="100" height="100" relative="1" as="geometry">
              <mxPoint x="520" y="239.9999999999999" as="sourcePoint" />
              <mxPoint x="1000" y="240" as="targetPoint" />
              <Array as="points">
                <mxPoint x="720" y="240" />
                <mxPoint x="760" y="160" />
                <mxPoint x="960" y="160" />
              </Array>
            </mxGeometry>
          </mxCell>
        </object>
        <object label="%id%" placeholders="1" type="section" id="s06">
          <mxCell style="endArrow=open;html=1;rounded=0;startArrow=baseDash;startFill=0;endFill=0;" parent="AcLKcFcPObNCE5Jz1mWQ-1" source="j04" target="j05" edge="1">
            <mxGeometry width="100" height="100" relative="1" as="geometry">
              <mxPoint x="480" y="320" as="sourcePoint" />
              <mxPoint x="1000" y="240" as="targetPoint" />
              <Array as="points">
                <mxPoint x="800" y="240" />
              </Array>
            </mxGeometry>
          </mxCell>
        </object>
        <object label="%id%" placeholders="1" type="platform" id="p04">
          <mxCell style="rounded=0;whiteSpace=wrap;html=1;" parent="AcLKcFcPObNCE5Jz1mWQ-1" vertex="1">
            <mxGeometry x="800" y="180" width="120" height="40" as="geometry" />
          </mxCell>
        </object>
        <object label="%id%" placeholders="1" type="section" id="s07">
          <mxCell style="endArrow=open;html=1;rounded=0;startArrow=baseDash;startFill=0;endFill=0;" parent="AcLKcFcPObNCE5Jz1mWQ-1" source="j04" target="j07" edge="1">
            <mxGeometry width="100" height="100" relative="1" as="geometry">
              <mxPoint x="760" y="320" as="sourcePoint" />
              <mxPoint x="1080" y="320" as="targetPoint" />
            </mxGeometry>
          </mxCell>
        </object>
        <object label="%id%" placeholders="1" type="section" id="s09">
          <mxCell style="endArrow=open;html=1;rounded=0;startArrow=baseDash;startFill=0;endFill=0;" parent="AcLKcFcPObNCE5Jz1mWQ-1" source="j06" target="j07" edge="1">
            <mxGeometry width="100" height="100" relative="1" as="geometry">
              <mxPoint x="1030" y="270" as="sourcePoint" />
              <mxPoint x="1080" y="320" as="targetPoint" />
              <Array as="points" />
            </mxGeometry>
          </mxCell>
        </object>
        <object label="%id%" placeholders="1" type="section" id="s11">
          <mxCell style="endArrow=open;html=1;rounded=0;startArrow=baseDash;startFill=0;endFill=0;" parent="AcLKcFcPObNCE5Jz1mWQ-1" source="j07" target="j08" edge="1">
            <mxGeometry width="100" height="100" relative="1" as="geometry">
              <mxPoint x="1080" y="319.16" as="sourcePoint" />
              <mxPoint x="1640" y="400" as="targetPoint" />
              <Array as="points">
                <mxPoint x="1840" y="320" />
                <mxPoint x="1840" y="400" />
              </Array>
            </mxGeometry>
          </mxCell>
        </object>
        <object label="%id%" placeholders="1" type="section" id="s10">
          <mxCell style="endArrow=open;html=1;rounded=0;startArrow=baseDash;startFill=0;endFill=0;" parent="AcLKcFcPObNCE5Jz1mWQ-1" source="j06" target="j09" edge="1">
            <mxGeometry width="100" height="100" relative="1" as="geometry">
              <mxPoint x="1039.9999999999998" y="240.00000000000009" as="sourcePoint" />
              <mxPoint x="1600" y="480" as="targetPoint" />
              <Array as="points">
                <mxPoint x="1920" y="240" />
                <mxPoint x="1920" y="480" />
              </Array>
            </mxGeometry>
          </mxCell>
        </object>
        <object label="%id%" placeholders="1" type="platform" id="p06">
          <mxCell style="rounded=0;whiteSpace=wrap;html=1;" parent="AcLKcFcPObNCE5Jz1mWQ-1" vertex="1">
            <mxGeometry x="1080" y="180" width="120" height="40" as="geometry" />
          </mxCell>
        </object>
        <object label="%id%" placeholders="1" type="platform" id="p08">
          <mxCell style="rounded=0;whiteSpace=wrap;html=1;" parent="AcLKcFcPObNCE5Jz1mWQ-1" vertex="1">
            <mxGeometry x="1360" y="180" width="120" height="40" as="geometry" />
          </mxCell>
        </object>
        <object label="%id%" placeholders="1" type="platform" id="p11">
          <mxCell style="rounded=0;whiteSpace=wrap;html=1;" parent="AcLKcFcPObNCE5Jz1mWQ-1" vertex="1">
            <mxGeometry x="1640" y="260" width="120" height="40" as="geometry" />
          </mxCell>
        </object>
        <object label="%id%" placeholders="1" type="platform" id="p12">
          <mxCell style="rounded=0;whiteSpace=wrap;html=1;" parent="AcLKcFcPObNCE5Jz1mWQ-1" vertex="1">
            <mxGeometry x="1640" y="420" width="120" height="40" as="geometry" />
          </mxCell>
        </object>
        <object label="%id%" placeholders="1" type="section" id="s12">
          <mxCell style="endArrow=open;html=1;rounded=0;startArrow=baseDash;startFill=0;endFill=0;" parent="AcLKcFcPObNCE5Jz1mWQ-1" source="j08" target="j09" edge="1">
            <mxGeometry width="100" height="100" relative="1" as="geometry">
              <mxPoint x="1640" y="399.4" as="sourcePoint" />
              <mxPoint x="1600" y="479.4" as="targetPoint" />
            </mxGeometry>
          </mxCell>
        </object>
        <object label="%id%" placeholders="1" type="section" id="s15">
          <mxCell style="endArrow=open;html=1;rounded=0;startArrow=baseDash;startFill=0;endFill=0;" parent="AcLKcFcPObNCE5Jz1mWQ-1" source="j10" target="j11" edge="1">
            <mxGeometry width="100" height="100" relative="1" as="geometry">
              <mxPoint x="1560" y="479.4" as="sourcePoint" />
              <mxPoint x="1520" y="399.4" as="targetPoint" />
            </mxGeometry>
          </mxCell>
        </object>
        <object label="%id%" placeholders="1" type="section" id="s13">
          <mxCell style="endArrow=open;html=1;rounded=0;startArrow=baseDash;startFill=0;endFill=0;" parent="AcLKcFcPObNCE5Jz1mWQ-1" source="j08" target="j11" edge="1">
            <mxGeometry width="100" height="100" relative="1" as="geometry">
              <mxPoint x="1640" y="399.4" as="sourcePoint" />
              <mxPoint x="1520" y="399.4" as="targetPoint" />
            </mxGeometry>
          </mxCell>
        </object>
        <object label="%id%" placeholders="1" type="section" id="s14">
          <mxCell style="endArrow=open;html=1;rounded=0;startArrow=baseDash;startFill=0;endFill=0;" parent="AcLKcFcPObNCE5Jz1mWQ-1" source="j09" target="j10" edge="1">
            <mxGeometry width="100" height="100" relative="1" as="geometry">
              <mxPoint x="1600" y="479.4" as="sourcePoint" />
              <mxPoint x="1560" y="479.4" as="targetPoint" />
            </mxGeometry>
          </mxCell>
        </object>
        <object label="%id%" placeholders="1" type="platform" id="p09">
          <mxCell style="rounded=0;whiteSpace=wrap;html=1;" parent="AcLKcFcPObNCE5Jz1mWQ-1" vertex="1">
            <mxGeometry x="1360" y="340" width="120" height="40" as="geometry" />
          </mxCell>
        </object>
        <object label="%id%" placeholders="1" type="platform" id="p10">
          <mxCell style="rounded=0;whiteSpace=wrap;html=1;" parent="AcLKcFcPObNCE5Jz1mWQ-1" vertex="1">
            <mxGeometry x="1360" y="500" width="120" height="40" as="geometry" />
          </mxCell>
        </object>
        <object label="%id%" placeholders="1" type="section" id="s17">
          <mxCell style="endArrow=open;html=1;rounded=0;startArrow=baseDash;startFill=0;endFill=0;" parent="AcLKcFcPObNCE5Jz1mWQ-1" source="j11" target="j13" edge="1">
            <mxGeometry width="100" height="100" relative="1" as="geometry">
              <mxPoint x="1510" y="380" as="sourcePoint" />
              <mxPoint x="1000" y="400" as="targetPoint" />
            </mxGeometry>
          </mxCell>
        </object>
        <object label="%id%" placeholders="1" type="section" id="s16">
          <mxCell style="endArrow=open;html=1;rounded=0;startArrow=baseDash;startFill=0;endFill=0;" parent="AcLKcFcPObNCE5Jz1mWQ-1" source="j10" target="j12" edge="1">
            <mxGeometry width="100" height="100" relative="1" as="geometry">
              <mxPoint x="1560" y="480" as="sourcePoint" />
              <mxPoint x="1040" y="480" as="targetPoint" />
            </mxGeometry>
          </mxCell>
        </object>
        <object label="%id%" placeholders="1" type="platform" id="p07">
          <mxCell style="rounded=0;whiteSpace=wrap;html=1;" parent="AcLKcFcPObNCE5Jz1mWQ-1" vertex="1">
            <mxGeometry x="1080" y="500" width="120" height="40" as="geometry" />
          </mxCell>
        </object>
        <object label="%id%" placeholders="1" type="platform" id="p03">
          <mxCell style="rounded=0;whiteSpace=wrap;html=1;" parent="AcLKcFcPObNCE5Jz1mWQ-1" vertex="1">
            <mxGeometry x="520" y="500" width="120" height="40" as="geometry" />
          </mxCell>
        </object>
        <object label="%id%" placeholders="1" type="section" id="s21">
          <mxCell style="endArrow=open;html=1;rounded=0;startArrow=baseDash;startFill=0;endFill=0;" parent="AcLKcFcPObNCE5Jz1mWQ-1" source="j14" target="j15" edge="1">
            <mxGeometry width="100" height="100" relative="1" as="geometry">
              <mxPoint x="960" y="399.9999999999999" as="sourcePoint" />
              <mxPoint x="920" y="479.9999999999999" as="targetPoint" />
            </mxGeometry>
          </mxCell>
        </object>
        <object label="%id%" placeholders="1" type="section" id="s18">
          <mxCell style="endArrow=open;html=1;rounded=0;startArrow=baseDash;startFill=0;endFill=0;" parent="AcLKcFcPObNCE5Jz1mWQ-1" source="j12" target="j13" edge="1">
            <mxGeometry width="100" height="100" relative="1" as="geometry">
              <mxPoint x="1040" y="479.9999999999999" as="sourcePoint" />
              <mxPoint x="1000" y="399.9999999999999" as="targetPoint" />
            </mxGeometry>
          </mxCell>
        </object>
        <object label="%id%" placeholders="1" type="section" id="s20">
          <mxCell style="endArrow=open;html=1;rounded=0;startArrow=baseDash;startFill=0;endFill=0;" parent="AcLKcFcPObNCE5Jz1mWQ-1" source="j13" target="j14" edge="1">
            <mxGeometry width="100" height="100" relative="1" as="geometry">
              <mxPoint x="1000" y="400" as="sourcePoint" />
              <mxPoint x="960" y="400" as="targetPoint" />
            </mxGeometry>
          </mxCell>
        </object>
        <object label="%id%" placeholders="1" type="section" id="s19">
          <mxCell style="endArrow=open;html=1;rounded=0;startArrow=baseDash;startFill=0;endFill=0;" parent="AcLKcFcPObNCE5Jz1mWQ-1" source="j12" target="j15" edge="1">
            <mxGeometry width="100" height="100" relative="1" as="geometry">
              <mxPoint x="1040" y="480" as="sourcePoint" />
              <mxPoint x="920" y="480" as="targetPoint" />
            </mxGeometry>
          </mxCell>
        </object>
        <object label="%id%" placeholders="1" type="platform" id="p05">
          <mxCell style="rounded=0;whiteSpace=wrap;html=1;" parent="AcLKcFcPObNCE5Jz1mWQ-1" vertex="1">
            <mxGeometry x="800" y="420" width="120" height="40" as="geometry" />
          </mxCell>
        </object>
        <object label="%id%" placeholders="1" type="section" id="s23">
          <mxCell style="endArrow=open;html=1;rounded=0;startArrow=baseDash;startFill=0;endFill=0;movable=1;resizable=1;rotatable=1;deletable=1;editable=1;connectable=1;" parent="AcLKcFcPObNCE5Jz1mWQ-1" source="j15" target="j00" edge="1">
            <mxGeometry width="100" height="100" relative="1" as="geometry">
              <mxPoint x="920" y="480" as="sourcePoint" />
              <mxPoint x="400" y="240" as="targetPoint" />
              <Array as="points">
                <mxPoint x="80" y="480" />
                <mxPoint x="80" y="240" />
              </Array>
            </mxGeometry>
          </mxCell>
        </object>
        <object label="%id%" placeholders="1" type="junction" id="j00">
          <mxCell style="ellipse;whiteSpace=wrap;html=1;aspect=fixed;perimeter=ellipsePerimeter;" parent="AcLKcFcPObNCE5Jz1mWQ-1" vertex="1">
            <mxGeometry x="390" y="230" width="20" height="20" as="geometry" />
          </mxCell>
        </object>
        <object label="%id%" placeholders="1" type="junction" id="j01">
          <mxCell style="ellipse;whiteSpace=wrap;html=1;aspect=fixed;" parent="AcLKcFcPObNCE5Jz1mWQ-1" vertex="1">
            <mxGeometry x="430" y="310" width="20" height="20" as="geometry" />
          </mxCell>
        </object>
        <object label="%id%" placeholders="1" type="section" id="s04">
          <mxCell style="rounded=0;orthogonalLoop=1;jettySize=auto;html=1;startArrow=baseDash;startFill=0;endArrow=open;endFill=0;" parent="AcLKcFcPObNCE5Jz1mWQ-1" source="j02" target="j04" edge="1">
            <mxGeometry relative="1" as="geometry" />
          </mxCell>
        </object>
        <object label="%id%" placeholders="1" type="junction" id="j02">
          <mxCell style="ellipse;whiteSpace=wrap;html=1;aspect=fixed;" parent="AcLKcFcPObNCE5Jz1mWQ-1" vertex="1">
            <mxGeometry x="470" y="310" width="20" height="20" as="geometry" />
          </mxCell>
        </object>
        <object label="%id%" placeholders="1" type="junction" id="j03">
          <mxCell style="ellipse;whiteSpace=wrap;html=1;aspect=fixed;" parent="AcLKcFcPObNCE5Jz1mWQ-1" vertex="1">
            <mxGeometry x="510" y="230" width="20" height="20" as="geometry" />
          </mxCell>
        </object>
        <object label="%id%" placeholders="1" type="junction" id="j14">
          <mxCell style="ellipse;whiteSpace=wrap;html=1;aspect=fixed;" parent="AcLKcFcPObNCE5Jz1mWQ-1" vertex="1">
            <mxGeometry x="950" y="390" width="20" height="20" as="geometry" />
          </mxCell>
        </object>
        <object label="%id%" placeholders="1" type="junction" id="j13">
          <mxCell style="ellipse;whiteSpace=wrap;html=1;aspect=fixed;" parent="AcLKcFcPObNCE5Jz1mWQ-1" vertex="1">
            <mxGeometry x="990" y="390" width="20" height="20" as="geometry" />
          </mxCell>
        </object>
        <object label="%id%" placeholders="1" type="junction" id="j15">
          <mxCell style="ellipse;whiteSpace=wrap;html=1;aspect=fixed;" parent="AcLKcFcPObNCE5Jz1mWQ-1" vertex="1">
            <mxGeometry x="910" y="470" width="20" height="20" as="geometry" />
          </mxCell>
        </object>
        <object label="%id%" placeholders="1" type="junction" id="j12">
          <mxCell style="ellipse;whiteSpace=wrap;html=1;aspect=fixed;" parent="AcLKcFcPObNCE5Jz1mWQ-1" vertex="1">
            <mxGeometry x="1030" y="470" width="20" height="20" as="geometry" />
          </mxCell>
        </object>
        <object label="%id%" placeholders="1" type="junction" id="j04">
          <mxCell style="ellipse;whiteSpace=wrap;html=1;aspect=fixed;" parent="AcLKcFcPObNCE5Jz1mWQ-1" vertex="1">
            <mxGeometry x="750" y="310" width="20" height="20" as="geometry" />
          </mxCell>
        </object>
        <object label="%id%" placeholders="1" type="junction" id="j05">
          <mxCell style="ellipse;whiteSpace=wrap;html=1;aspect=fixed;" parent="AcLKcFcPObNCE5Jz1mWQ-1" vertex="1">
            <mxGeometry x="990" y="230" width="20" height="20" as="geometry" />
          </mxCell>
        </object>
        <object label="%id%" placeholders="1" type="section" id="s08">
          <mxCell style="endArrow=open;html=1;rounded=0;startArrow=baseDash;startFill=0;endFill=0;" parent="AcLKcFcPObNCE5Jz1mWQ-1" source="j05" target="j06" edge="1">
            <mxGeometry width="100" height="100" relative="1" as="geometry">
              <mxPoint x="1040" y="280" as="sourcePoint" />
              <mxPoint x="1050" y="270" as="targetPoint" />
              <Array as="points" />
            </mxGeometry>
          </mxCell>
        </object>
        <object label="%id%" placeholders="1" type="junction" id="j06">
          <mxCell style="ellipse;whiteSpace=wrap;html=1;aspect=fixed;" parent="AcLKcFcPObNCE5Jz1mWQ-1" vertex="1">
            <mxGeometry x="1030" y="230" width="20" height="20" as="geometry" />
          </mxCell>
        </object>
        <object label="%id%" placeholders="1" type="junction" id="j07">
          <mxCell style="ellipse;whiteSpace=wrap;html=1;aspect=fixed;" parent="AcLKcFcPObNCE5Jz1mWQ-1" vertex="1">
            <mxGeometry x="1070" y="310" width="20" height="20" as="geometry" />
          </mxCell>
        </object>
        <object label="%id%" placeholders="1" type="junction" id="j11">
          <mxCell style="ellipse;whiteSpace=wrap;html=1;aspect=fixed;" parent="AcLKcFcPObNCE5Jz1mWQ-1" vertex="1">
            <mxGeometry x="1510" y="390" width="20" height="20" as="geometry" />
          </mxCell>
        </object>
        <object label="%id%" placeholders="1" type="junction" id="j10">
          <mxCell style="ellipse;whiteSpace=wrap;html=1;aspect=fixed;" parent="AcLKcFcPObNCE5Jz1mWQ-1" vertex="1">
            <mxGeometry x="1550" y="470" width="20" height="20" as="geometry" />
          </mxCell>
        </object>
        <object label="%id%" placeholders="1" type="junction" id="j09">
          <mxCell style="ellipse;whiteSpace=wrap;html=1;aspect=fixed;" parent="AcLKcFcPObNCE5Jz1mWQ-1" vertex="1">
            <mxGeometry x="1590" y="470" width="20" height="20" as="geometry" />
          </mxCell>
        </object>
        <object label="%id%" placeholders="1" type="junction" id="j08">
          <mxCell style="ellipse;whiteSpace=wrap;html=1;aspect=fixed;" parent="AcLKcFcPObNCE5Jz1mWQ-1" vertex="1">
            <mxGeometry x="1630" y="390" width="20" height="20" as="geometry" />
          </mxCell>
        </object>
      </root>
    </mxGraphModel>
  </diagram>
</mxfile>
